<svg xmlns="http://www.w3.org/2000/svg" viewBox="0 0 4069.63 638.64"><defs><style>.cls-1,.cls-2,.cls-3{fill:#fff;}.cls-2,.cls-3{stroke:#fff;stroke-miterlimit:10;}.cls-2{stroke-width:0.45px;}.cls-3{stroke-width:0.47px;}</style></defs><title>BGCloud</title><g id="Layer_2" data-name="Layer 2"><g id="balloons"><path class="cls-1" d="M1018,22.24c12.08-23,57.36-40,105.37,11.24s58.22-5.93,87-.84,39.91,45.37,62.93,43.54,33.92,82.63-60.63,71.83c-29.16,40.54-72.25,58-133.72-10.35C1079,137.66,961.31,130.14,1018,22.24Z"/><path class="cls-1" d="M12.15,38.49C23.31,9.95,72.72-18.82,132.69,29.1S198,10.17,231.16,9.88s50.16,43,76,36.09S354.64,132.42,246.4,140c-28.58,52-75.46,80.83-152.55,16.35C93.85,156.38-40.26,172.57,12.15,38.49Z"/><path class="cls-1" d="M775,403.27c16.61-31.59,78.9-55,144.92,15.46s80.07-8.16,119.72-1.16,54.89,62.4,86.55,59.88,46.65,113.65-83.39,98.8C1002.71,632,943.44,656,858.89,562,858.89,562,697,551.67,775,403.27Z"/><path class="cls-1" d="M432.72,129c8.34-21.34,45.29-42.86,90.14-7s48.81-14.16,73.63-14.37,37.51,32.15,56.85,27,35.48,64.64-45.45,70.33c-21.37,38.9-56.43,60.44-114.07,12.22C493.81,217.2,393.53,229.3,432.72,129Z"/><path class="cls-1" d="M1344.26,226.24c6.74-17.25,36.61-34.64,72.86-5.68s39.45-11.45,59.52-11.62,30.32,26,46,21.82,28.68,52.25-36.74,56.86c-17.27,31.45-45.61,48.85-92.21,9.88C1393.64,297.5,1312.58,307.28,1344.26,226.24Z"/><path class="cls-2" d="M1771.88,289.34c5.51-10.18,26.27-17.63,48.38,5.27s26.71-2.49,39.95-.15,18.39,20.28,28.95,19.52,15.69,36.83-27.72,31.78c-13.32,18-33.07,25.6-61.39-4.95C1800,340.81,1746,337.17,1771.88,289.34Z"/><path class="cls-3" d="M1803,255.63c4.63-8.81,22-15.33,40.4,4.31s22.32-2.27,33.37-.32,15.3,17.39,24.12,16.69,13,31.68-23.24,27.54c-11.18,15.54-27.7,22.23-51.27-4C1826.38,299.88,1781.25,297,1803,255.63Z"/><path class="cls-1" d="M1599.18,50c9.78-18.61,46.48-32.39,85.37,9.11s47.17-4.81,70.52-.68,32.34,36.76,51,35.28,27.48,66.95-49.12,58.2c-23.62,32.85-58.54,47-108.34-8.39C1648.59,143.52,1553.23,137.42,1599.18,50Z"/><path class="cls-1" d="M2034.68,196.44c6.71-12.76,31.86-22.2,58.52,6.24s32.33-3.29,48.34-.47,22.17,25.2,34.95,24.18,18.84,45.89-33.67,39.89c-16.19,22.52-40.13,32.2-74.26-5.75C2068.55,260.53,2003.18,256.36,2034.68,196.44Z"/><path class="cls-1" d="M3552.37,35.54c12.08-23,57.36-40,105.37,11.24s58.22-5.93,87-.84,39.91,45.37,62.93,43.54,33.92,82.63-60.63,71.83c-29.16,40.54-72.25,58-133.72-10.35C3613.35,151,3495.65,143.44,3552.37,35.54Z"/><path class="cls-1" d="M2546.49,51.79c11.16-28.54,60.57-57.31,120.54-9.39s65.27-18.94,98.47-19.22,50.16,43,76,36.09,47.45,86.45-60.78,94.06c-28.58,52-75.46,80.83-152.55,16.35C2628.19,169.67,2494.08,185.86,2546.49,51.79Z"/><path class="cls-1" d="M3309.35,416.56c16.61-31.59,78.9-55,144.92,15.46s80.07-8.16,119.72-1.16,54.89,62.4,86.55,59.88,46.65,113.65-83.39,98.8c-40.1,55.76-99.38,79.76-183.92-14.24C3393.23,575.31,3231.34,565,3309.35,416.56Z"/><path class="cls-1" d="M2967.05,142.34c8.34-21.34,45.29-42.86,90.14-7s48.81-14.16,73.63-14.37,37.51,32.15,56.85,27,35.48,64.64-45.45,70.33c-21.37,38.9-56.43,60.44-114.07,12.22C3028.14,230.49,2927.87,242.6,2967.05,142.34Z"/><path class="cls-1" d="M3878.59,239.53c6.74-17.25,36.61-34.64,72.86-5.68s39.45-11.45,59.52-11.62,30.32,26,46,21.82,28.68,52.25-36.74,56.86c-17.27,31.45-45.61,48.85-92.21,9.88C3928,310.79,3846.92,320.58,3878.59,239.53Z"/><path class="cls-1" d="M2338.95,341.37c9.33-17.74,44.3-30.88,81.38,8.68s45-4.58,67.23-.65,30.83,35,48.6,33.63,26.19,63.82-46.83,55.48c-22.52,31.31-55.8,44.79-103.28-8C2386.05,430.51,2295.14,424.7,2338.95,341.37Z"/></g></g></svg>