<svg xmlns="http://www.w3.org/2000/svg" viewBox="0 0 3924.74 423.37"><defs><style>.cls-1,.cls-2,.cls-3{fill:#fff;}.cls-2,.cls-3{stroke:#fff;stroke-miterlimit:10;}.cls-2{stroke-width:0.35px;}.cls-3{stroke-width:0.37px;}</style></defs><title>cloudyBG</title><g id="Layer_2" data-name="Layer 2"><g id="balloons"><path class="cls-1" d="M1124.44,14.75c11.08-15.23,52.64-26.51,96.69,7.45s53.42-3.93,79.88-.56,36.63,30.08,57.74,28.86,31.12,54.78-55.64,47.62c-26.76,26.88-66.3,38.44-122.71-6.86C1180.41,91.26,1072.39,86.27,1124.44,14.75Z"/><path class="cls-1" d="M201.4,25.52C211.63,6.59,257-12.48,312,19.29s59.9-12.55,90.36-12.74,46,28.5,69.76,23.93,43.55,57.31-55.78,62.35c-26.22,34.49-69.25,53.58-140,10.84C276.37,103.67,153.31,114.4,201.4,25.52Z"/><path class="cls-1" d="M901.44,267.33c15.24-20.94,72.4-36.45,133,10.25s73.48-5.41,109.86-.77,50.37,41.37,79.42,39.7,42.81,75.34-76.52,65.49c-36.8,37-91.19,52.87-168.77-9.44C978.41,372.57,829.85,365.71,901.44,267.33Z"/><path class="cls-1" d="M587.33,85.55C595,71.4,628.89,57.14,670,80.89s44.79-9.39,67.57-9.53S772,92.68,789.77,89.25s32.56,42.85-41.71,46.63c-19.61,25.79-51.78,40.07-104.68,8.1C643.39,144,551.37,152,587.33,85.55Z"/><path class="cls-1" d="M1423.8,150c6.19-11.44,33.6-23,66.86-3.76s36.2-7.59,54.62-7.7,27.82,17.23,42.17,14.46,26.32,34.64-33.72,37.69c-15.85,20.85-41.86,32.39-84.62,6.55C1469.12,197.22,1394.74,203.7,1423.8,150Z"/><path class="cls-1" d="M10.95,217.49c8.56-11.76,40.65-20.47,74.68,5.75s41.26-3,61.69-.43,28.29,23.23,44.6,22.29,24,42.31-43,36.78c-20.67,20.76-51.21,29.69-94.77-5.3C54.17,276.58-29.25,272.73,10.95,217.49Z"/><path class="cls-2" d="M1816.21,191.81c5.05-6.75,24.1-11.69,44.39,3.49s24.51-1.65,36.66-.1,16.87,13.44,26.56,12.94,14.4,24.41-25.44,21.07c-12.22,11.9-30.35,17-56.33-3.28C1842.06,225.93,1792.47,223.51,1816.21,191.81Z"/><path class="cls-3" d="M1844.76,169.46c4.25-5.84,20.18-10.16,37.07,2.86s20.48-1.51,30.62-.21,14,11.53,22.14,11.07,11.93,21-21.33,18.26c-10.26,10.3-25.42,14.74-47-2.63C1866.22,198.8,1824.81,196.89,1844.76,169.46Z"/><path class="cls-1" d="M1657.73,33.15c9-12.34,42.65-21.47,78.34,6s43.28-3.19,64.72-.45,29.67,24.37,46.78,23.38,25.22,44.38-45.08,38.58c-21.68,21.78-53.72,31.15-99.42-5.56C1703.08,95.14,1615.56,91.1,1657.73,33.15Z"/><path class="cls-1" d="M2057.37,130.22c6.15-8.46,29.23-14.72,53.7,4.14s29.67-2.18,44.36-.31,20.34,16.7,32.07,16,17.28,30.42-30.9,26.45c-14.86,14.93-36.82,21.35-68.15-3.81C2088.45,172.71,2028.46,169.94,2057.37,130.22Z"/><path class="cls-1" d="M3450.07,23.56c11.08-15.23,52.64-26.51,96.69,7.45s53.42-3.93,79.88-.56,36.63,30.08,57.74,28.86,31.12,54.78-55.64,47.62c-26.76,26.88-66.3,38.44-122.71-6.86C3506,100.07,3398,95.09,3450.07,23.56Z"/><path class="cls-1" d="M2527,34.33c10.24-18.92,55.58-38,110.62-6.22s59.9-12.55,90.36-12.74,46,28.5,69.76,23.93,43.55,57.31-55.78,62.35c-26.22,34.49-69.25,53.58-140,10.84C2602,112.48,2478.94,123.21,2527,34.33Z"/><path class="cls-1" d="M3227.07,276.15c15.24-20.94,72.4-36.45,133,10.25s73.48-5.41,109.86-.77,50.37,41.37,79.42,39.7,42.81,75.34-76.52,65.49c-36.8,37-91.19,52.87-168.77-9.44C3304,381.38,3155.48,374.52,3227.07,276.15Z"/><path class="cls-1" d="M2913,94.36c7.66-14.15,41.56-28.41,82.71-4.65s44.79-9.39,67.57-9.53,34.42,21.31,52.16,17.89,32.56,42.85-41.71,46.63c-19.61,25.79-51.78,40.07-104.68,8.1C2969,152.8,2877,160.82,2913,94.36Z"/><path class="cls-1" d="M3749.43,158.79c6.19-11.44,33.6-23,66.86-3.76s36.2-7.59,54.62-7.7,27.82,17.23,42.17,14.46,26.32,34.64-33.72,37.69c-15.85,20.85-41.86,32.39-84.62,6.55C3794.75,206,3720.37,212.52,3749.43,158.79Z"/><path class="cls-1" d="M2336.58,226.3c8.56-11.76,40.65-20.47,74.68,5.75s41.26-3,61.69-.43,28.29,23.23,44.6,22.29,24,42.31-43,36.78c-20.67,20.76-51.21,29.69-94.77-5.3C2379.8,285.39,2296.38,281.54,2336.58,226.3Z"/></g></g></svg>