<svg xmlns="http://www.w3.org/2000/svg" viewBox="0 0 3631.56 387.4"><defs><style>.cls-1,.cls-2,.cls-3{fill:#fff;}.cls-2,.cls-3{stroke:#fff;stroke-miterlimit:10;}.cls-2{stroke-width:0.35px;}.cls-3{stroke-width:0.37px;}</style></defs><title>clouds</title><g id="Layer_2" data-name="Layer 2"><g id="balloons"><path class="cls-1" d="M2392.09,150.67c9-12.34,42.65-21.47,78.34,6s43.28-3.19,64.72-.45,29.67,24.37,46.78,23.38,25.22,44.38-45.08,38.58c-21.68,21.78-53.72,31.15-99.42-5.56C2437.44,212.66,2349.92,208.62,2392.09,150.67Z"/><path class="cls-1" d="M2588.64,13.89c9-12.34,42.65-21.47,78.34,6s43.28-3.19,64.72-.45,29.67,24.37,46.78,23.38,25.22,44.38-45.08,38.58c-21.68,21.78-53.72,31.15-99.42-5.56C2634,75.88,2546.47,71.84,2588.64,13.89Z"/><path class="cls-1" d="M3631.56,77.81c-11,5.33-23.94,7.58-46.24-9.61-41.73-32.17-81.1-21.48-91.6-7.06-49.31,67.76,53,72.48,53,72.48,34.64,27.82,62.56,33,84.82,26.25Z"/><path class="cls-1" d="M1753.41,14.75C1764.49-.48,1806-11.76,1850.1,22.2s53.42-3.93,79.88-.56,36.63,30.08,57.74,28.86,31.12,54.78-55.64,47.62c-26.76,26.88-66.3,38.44-122.71-6.86C1809.37,91.26,1701.36,86.27,1753.41,14.75Z"/><path class="cls-1" d="M997.4,137.92c8.94-16.52,48.52-33.16,96.55-5.43s52.28-11,78.87-11.12,40.18,24.88,60.89,20.88,38,50-48.69,54.43c-22.89,30.1-60.44,46.77-122.19,9.46C1062.84,206.13,955.42,215.5,997.4,137.92Z"/><path class="cls-1" d="M1527.43,258.14c10.5-14.42,49.87-25.11,91.6,7.06s50.61-3.73,75.67-.53,34.7,28.49,54.7,27.34,29.48,51.89-52.71,45.11c-25.35,25.46-62.81,36.42-116.25-6.5C1580.45,330.62,1478.13,325.9,1527.43,258.14Z"/><path class="cls-1" d="M1128.84,191c8.94-16.52,48.52-33.16,96.55-5.43s52.28-11,78.87-11.12,40.18,24.88,60.89,20.88,38,50-48.69,54.43c-22.89,30.1-60.44,46.77-122.19,9.46C1194.28,259.26,1086.86,268.63,1128.84,191Z"/><path class="cls-1" d="M2052.77,150c6.19-11.44,33.6-23,66.86-3.76s36.2-7.59,54.62-7.7,27.82,17.23,42.17,14.46,26.32,34.64-33.72,37.69c-15.85,20.85-41.86,32.39-84.62,6.55C2098.09,197.22,2023.7,203.7,2052.77,150Z"/><path class="cls-1" d="M10.95,230.92c8.56-11.76,40.65-20.47,74.68,5.75s41.26-3,61.69-.43,28.29,23.23,44.6,22.29,24,42.31-43,36.78C128.28,316.07,97.74,325,54.17,290,54.17,290-29.25,286.16,10.95,230.92Z"/><path class="cls-1" d="M589.6,247.34c10.5-14.42,49.87-25.11,91.6,7.06s50.61-3.73,75.67-.53,34.7,28.49,54.7,27.34,29.48,51.89-52.71,45.11c-25.35,25.46-62.81,36.42-116.25-6.5C642.62,319.82,540.29,315.1,589.6,247.34Z"/><path class="cls-2" d="M2951.36,339.39c5.05-6.75,24.1-11.69,44.39,3.49s24.51-1.65,36.66-.1,16.87,13.44,26.56,12.94,14.4,24.41-25.44,21.07c-12.22,11.9-30.35,17-56.33-3.28C2977.2,373.52,2927.62,371.1,2951.36,339.39Z"/><path class="cls-3" d="M2979.91,317c4.25-5.84,20.18-10.16,37.07,2.86s20.48-1.51,30.62-.21,14,11.53,22.14,11.07,11.93,21-21.33,18.26c-10.26,10.3-25.42,14.74-47-2.63C3001.37,346.38,2960,344.47,2979.91,317Z"/><path class="cls-1" d="M2967.66,122.37c9-12.34,42.65-21.47,78.34,6s43.28-3.19,64.72-.45,29.67,24.37,46.78,23.38,25.22,44.38-45.08,38.58c-21.68,21.78-53.72,31.15-99.42-5.56C3013,184.36,2925.49,180.32,2967.66,122.37Z"/><path class="cls-1" d="M3187.71,116.42c6.15-8.46,29.23-14.72,53.7,4.14s29.67-2.18,44.36-.31,20.34,16.7,32.07,16,17.28,30.42-30.9,26.45c-14.86,14.93-36.82,21.35-68.15-3.81C3218.8,158.91,3158.81,156.14,3187.71,116.42Z"/></g></g></svg>