<svg xmlns="http://www.w3.org/2000/svg" viewBox="0 0 157.98 173.93"><defs><style>.cls-1{fill:#6d5d0c;}.cls-2{fill:#fffac7;}.cls-3{fill:none;stroke:#fff;stroke-miterlimit:10;}</style></defs><title>drum</title><g id="Layer_2" data-name="Layer 2"><g id="Parade_Background" data-name="Parade Background"><ellipse class="cls-1" cx="78.73" cy="96.2" rx="77.16" ry="77.73"/><ellipse class="cls-1" cx="78.73" cy="79.51" rx="78.73" ry="79.31"/><ellipse class="cls-2" cx="78.79" cy="92.43" rx="77.16" ry="77.73"/><polyline class="cls-3" points="0.39 71.59 4.77 70.42 2.58 57.85 11.62 54.16 9.79 41.2 22.04 39.76 22.04 24.48 37.61 26.69 39.52 10.72 56.53 17.99 61.63 2.09 76.25 14.7 89.06 0.89 96.47 16.76 111.69 7.47 115.75 24.19 131.43 20.6 134.22 38.36 147.03 40.05 147.98 58 154.93 59.53 153.14 71.59 157.46 77.45 155.95 87.98"/></g></g></svg>