<svg xmlns="http://www.w3.org/2000/svg" viewBox="0 0 1365.91 762.39"><defs><style>.cls-1{fill:#a5efeb;}.cls-2{fill:#ff6700;}.cls-3{fill:#c8ef5b;}.cls-4{fill:#fff;}.cls-5{fill:#e9ff8a;}.cls-6{fill:#ddcb99;}.cls-10,.cls-13,.cls-16,.cls-19,.cls-22,.cls-24,.cls-26,.cls-29,.cls-31,.cls-7{fill:none;}.cls-7{stroke:#9bce7e;stroke-width:4.56px;}.cls-10,.cls-11,.cls-13,.cls-14,.cls-16,.cls-17,.cls-19,.cls-20,.cls-22,.cls-23,.cls-24,.cls-25,.cls-26,.cls-27,.cls-29,.cls-31,.cls-7{stroke-miterlimit:10;}.cls-8{fill:#a4f76d;}.cls-9{fill:#9e982b;}.cls-10,.cls-13,.cls-16,.cls-19,.cls-22,.cls-24,.cls-26{stroke:#917e20;}.cls-10{stroke-width:2.11px;}.cls-11,.cls-14,.cls-17,.cls-20,.cls-23,.cls-25,.cls-27{fill:#efe8a8;stroke:#fff;}.cls-11{stroke-width:1.66px;}.cls-12{fill:#abff9c;}.cls-13{stroke-width:3.09px;}.cls-14{stroke-width:2.42px;}.cls-15{fill:#8bdb00;}.cls-16{stroke-width:1.17px;}.cls-17{stroke-width:0.91px;}.cls-18{fill:#2de24f;}.cls-19{stroke-width:2.31px;}.cls-20{stroke-width:1.81px;}.cls-21{fill:#85ff6c;}.cls-22{stroke-width:5.53px;}.cls-23{stroke-width:4.34px;}.cls-24{stroke-width:1.5px;}.cls-25{stroke-width:1.17px;}.cls-26{stroke-width:2.7px;}.cls-27{stroke-width:2.12px;}.cls-28{fill:#ffe98f;}.cls-29,.cls-31{stroke:#000;}.cls-29{stroke-width:1.48px;}.cls-30{fill:#ff8d8d;}.cls-31{stroke-width:0.97px;}.cls-32{fill:#ff8ffc;}</style></defs><title>main</title><g id="balloons"><path class="cls-1" d="M-.08-4.49V2.6c0,.21,0,.42,0,.63V165.51c.1,1.79.15,3.59.08,5.43v17.32c0,1,0,2-.08,3V371.8q.09,1.71.09,3.42v90.12c0,.39,0,.77,0,1.16,0,.91.07,1.81.07,2.72v96.63c0,1.38-.05,2.74-.14,4.1V761.27h4098V-4.49Z"/><path class="cls-2" d="M768.9,436.52s-5-9,2.6-11c0,0,2.22,13.46,17.21,13Z"/><path class="cls-3" d="M0,465.33c0,.39,0,.77,0,1.16,0,.91.07,1.81.07,2.72v78.5l840.28,2.11S726,411.67,546.93,321.84c-318.93-154.64-547,0-547,0v50q.09,1.71.09,3.42Z"/><path class="cls-4" d="M477.39,237.1c8.56-11.76,40.65-20.47,74.68,5.75s41.26-3,61.69-.43,28.29,23.23,44.6,22.29,24,42.31-43,36.78c-20.67,20.76-51.21,29.69-94.77-5.3C520.62,296.19,437.19,292.34,477.39,237.1Z"/><path class="cls-4" d="M763-5.24c9.36,28.61,65.12,31.18,65.12,31.18,53.44,42.92,90.9,32,116.25,6.5,61.78,5.1,71.76-23.6,64.41-37.68Z"/><path class="cls-4" d="M-.08-5.08v3.46C19.46,8.53,46,9.77,46,9.77c53.44,42.92,90.9,32,116.25,6.5,42.1,3.47,60.13-8.75,65-21.35Z"/><path class="cls-4" d="M1056,253.52c10.5-14.42,49.87-25.11,91.6,7.06s50.61-3.73,75.67-.53,34.7,28.49,54.7,27.34,29.48,51.89-52.71,45.11C1200,358,1162.49,368.91,1109.06,326,1109.06,326,1006.73,321.27,1056,253.52Z"/><path class="cls-5" d="M1365.91,329.83s-224.47-94.62-538.32,32.89c-176.22,74.08-288.72,188-288.72,188l827-1.74Z"/><path class="cls-6" d="M0,546.76v19.09c0,1.38-.05,2.74-.14,4.1V762.39h4098V546.76Z"/><path class="cls-7" d="M1365.91,166.75s499.73,185.16,1366,0"/><path class="cls-8" d="M930.83,30.31a63.77,63.77,0,0,0,42,18.31l-7.41,17s13.57-.25,17.48,8.43-16.62,55.81-23.74,54.48a34.61,34.61,0,0,1-15.83-6.9l-6.81,15.63s-16.63,2.31-44-19.17C892.57,118.11,879,73.11,930.83,30.31Zm15.59,85.42s5.93,6.14,12.14,5.29,17.89-37.53,18.27-41.92-13.69-6-13.69-6Z"/><path class="cls-9" d="M930.83,30.31s17-1,42,18.31A62.24,62.24,0,0,1,930.83,30.31Z"/><path class="cls-10" d="M937.85,64.42s-20.14,19.32-20.08,46.08"/><path class="cls-10" d="M925.59,58.83s-20.14,19.32-20.08,46.08"/><path class="cls-10" d="M950,69.71S929.84,89,929.9,115.78"/><path class="cls-4" d="M891,106.64s29.37,25.14,49.54,21.59l-3.95,9.06s-15.5,3.19-44-19.17A39.39,39.39,0,0,1,891,106.64Z"/><path class="cls-4" d="M965.45,65.63l-2.31,7.5s13.64,1.09,13.69,6-10,29.85-11.28,32.23-4.6,9.47-7,9.69-5.85-.31-12.14-5.29l-3.06,5.92s5.76,5.64,16.51,6.9c0,0,2.77-.27,7.08-7.67,5.09-7.21,12.79-26.14,13.46-29.27s4.17-12.44,2.85-16.91-7-8.11-14.8-8.94Z"/><path class="cls-4" d="M928.89,34.77l-1.2-2.41s-42.09,34.36-36.35,78.84l2.41,1S890.29,68.62,928.89,34.77Z"/><polygon class="cls-4" points="964.04 64.16 935.63 129.38 939.9 129.59 943.37 121.65 946.42 115.73 950.75 104.77 956.99 88.79 963.14 73.13 965.84 64.61 964.04 64.16"/><path class="cls-11" d="M932.06,37.81c-9.51,13.24-17.1.26-12-3.33-3.67-6.91,1-10.69,7.17-10-2.16-10.17,12.19-10.6,12.35-2.09,8.75-8,18,4.83,12.73,9.95,12.36-9.39,19.7-.39,16.35,7.3,11.84-4.16,16.85,13.43,8.5,14.4,12.19,10.8-.28,22.44-9.58,13.1-3.23,11.44-24-7.47-10.27-11.16-12.37,3.59-20.39-4.49-14.76-11.36C932.92,55.39,932.06,37.81,932.06,37.81Z"/><path class="cls-12" d="M640-4.9H526.61c-21.88,52.81-2.25,90.37-2.25,90.37,45.19,23.29,68.43,15.39,68.43,15.39l5.47-24.31a50.59,50.59,0,0,0,24.62,5.54C633.46,82,649.94,8.7,641.93-2.68A15.75,15.75,0,0,0,640-4.9ZM619.89,71.44C611.21,74.38,601,67.19,601,67.19L613.26,1.43s20.63-1.62,21.3,4.79S628.58,68.51,619.89,71.44Z"/><path class="cls-13" d="M574.55-3.1S551,30.2,558.43,68.59"/><path class="cls-13" d="M552.65-3.36c-12.75,19.68-16.75,43.68-13.36,67.29"/><path class="cls-13" d="M593.42,1.15S569.83,34.44,577.3,72.83"/><path class="cls-4" d="M518.87,70.43S568,98.43,596,87.77l-3.17,14.09s-21.38,8.86-68.43-15.39A57.58,57.58,0,0,1,518.87,70.43Z"/><path class="cls-4" d="M640.3-4.9H614l-.7,6.34s19.88-2.19,21.3,4.79-6.19,45.62-7.31,49.37-4,14.86-7.36,15.84-8.48,1.16-18.89-4.25l-2.75,9.35s9.83,6.51,25.61,5.35c0,0,3.9-1.16,8.05-13,5.32-11.75,11.16-41,11.25-45.74s2.56-19-.57-25.06A12.1,12.1,0,0,0,640.3-4.9Z"/><path class="cls-4" d="M531.21-4.9h-4.77c-9.23,22.5-15.4,51.49-5.75,80.77l3.74.84S514.18,39.48,531.21-4.9Z"/><polygon class="cls-4" points="610.56 -3.9 589.27 90.77 595.47 89.9 598.25 77.54 601 68.19 604.2 51.27 608.75 26.6 613.26 2.43 614.01 -3.9 610.56 -3.9"/><path class="cls-14" d="M601.76-3.9c5.5,3.48,12.6,4.67,15.22,0Z"/><path class="cls-15" d="M1155.61,151.91a35.19,35.19,0,0,0,23.2,10.11l-4.09,9.39s7.49-.14,9.65,4.66-9.17,30.8-13.1,30.07a19.1,19.1,0,0,1-8.73-3.81l-3.76,8.62s-9.18,1.28-24.28-10.58C1134.49,200.38,1127,175.54,1155.61,151.91Zm8.6,47.15s3.27,3.39,6.7,2.92,9.87-20.71,10.08-23.14-7.56-3.29-7.56-3.29Z"/><path class="cls-9" d="M1155.61,151.91s9.37-.57,23.2,10.11A34.35,34.35,0,0,1,1155.61,151.91Z"/><path class="cls-16" d="M1159.48,170.75s-11.12,10.66-11.08,25.43"/><path class="cls-16" d="M1152.72,167.66s-11.12,10.66-11.08,25.43"/><path class="cls-16" d="M1166.18,173.66s-11.12,10.66-11.08,25.43"/><path class="cls-4" d="M1133.6,194s16.21,13.88,27.34,11.92l-2.18,5s-8.56,1.76-24.28-10.58A21.74,21.74,0,0,1,1133.6,194Z"/><path class="cls-4" d="M1174.72,171.41l-1.28,4.14s7.53.6,7.56,3.29-5.54,16.47-6.22,17.79-2.54,5.23-3.86,5.35-3.23-.17-6.7-2.92l-1.69,3.27a16.43,16.43,0,0,0,9.11,3.81s1.53-.15,3.91-4.23c2.81-4,7.06-14.42,7.43-16.16s2.3-6.87,1.57-9.33-3.86-4.47-8.17-4.94Z"/><path class="cls-4" d="M1154.54,154.38l-.66-1.33s-23.23,19-20.06,43.51l1.33.58S1133.23,173.06,1154.54,154.38Z"/><polygon class="cls-4" points="1173.94 170.6 1158.26 206.6 1160.62 206.72 1162.53 202.33 1164.21 199.06 1166.6 193.02 1170.05 184.19 1173.44 175.55 1174.93 170.85 1173.94 170.6"/><path class="cls-17" d="M1156.29,156.05c-5.25,7.31-9.44.14-6.63-1.84-2-3.82.53-5.9,4-5.52-1.19-5.61,6.73-5.85,6.81-1.15,4.83-4.4,9.91,2.67,7,5.49,6.82-5.18,10.87-.21,9,4,6.54-2.3,9.3,7.41,4.69,8,6.73,6-.15,12.38-5.29,7.23-1.78,6.31-13.26-4.13-5.67-6.16-6.82,2-11.25-2.48-8.15-6.27C1156.76,165.76,1156.29,156.05,1156.29,156.05Z"/><path class="cls-18" d="M288,157.38s24.41-7.12,38.12-32.66l13.22,15.43S345.56,126.66,356,127s47,43,42.33,49.41A37.89,37.89,0,0,1,384,188.66l12.14,14.17s-5.67,17.49-39.89,34.18C356.21,237,305.41,228.84,288,157.38Zm91.6,25.45s8.88-2.91,11-9.43-28.42-35.55-32.57-38S345.61,146,345.61,146Z"/><path class="cls-9" d="M288,157.38s7.1-17.22,38.12-32.66A68.14,68.14,0,0,1,288,157.38Z"/><path class="cls-19" d="M324.95,166.76s9.41,29.07,35.8,41.79"/><path class="cls-19" d="M313.58,176.16s9.41,29.07,35.8,41.79"/><path class="cls-19" d="M335.95,157.34s9.41,29.07,35.8,41.79"/><path class="cls-4" d="M344.13,233.12s38.8-16.92,44.93-38.49l7,8.21s-4.26,16.8-39.89,34.18A43.12,43.12,0,0,1,344.13,233.12Z"/><path class="cls-4" d="M339.32,140.15l6.28,5.86S353.2,133.1,358,135.37s24.6,24.15,26.36,26.5,7.13,9.05,6.21,11.52-3.1,5.61-11,9.43l4.38,5.84s8.31-3,14.68-13c0,0,1.05-2.86-4.17-10.64-4.67-8.46-19.64-25.08-22.41-27.24s-10.26-10.05-15.3-10.89-11.32,3-15.88,10.31Z"/><path class="cls-4" d="M291.45,161.42l-2.95,0s13.74,57.88,60.3,73.47L351,233S306.36,215.61,291.45,161.42Z"/><polygon class="cls-4" points="337.2 140.83 387.88 199.98 390.13 195.87 383.96 188.66 379.58 182.82 370.86 173.33 358.09 159.54 345.61 146.01 338.51 139.28 337.2 140.83"/><path class="cls-20" d="M296,159.75c8.5,15.69-7.91,17-9,10.24-8.57.32-10.07-6.05-6.42-11.84-11-2.73-4.62-17.07,3.84-13.16-3.67-12.43,13.34-15.38,15.88-7.79-3.35-16.67,9-19.59,15-12.62,1.56-13.66,21.28-10.18,18.25-1.5,16.46-6.85,22,11,8.33,15.7,9.73,8.64-18.84,20.09-15.9,4.78-2.37,13.89-14.16,17.95-18.24,9.11C313.7,167.3,296,159.75,296,159.75Z"/><path class="cls-21" d="M121.74,145.58c-10.24-22.74-45.8-22.09-45.8-22.09L95.36,78.93C51.93,77.14,19.7,58.75,1.69,45.27V162.81a56.12,56.12,0,0,1,.3,8.13v17.32c0,2.07-.11,4.11-.3,6.12V307.9L18.1,270.23c12.05,8.89,22.81,14.6,41.45,18.06S132,168.32,121.74,145.58Zm-63.83,123C41.64,270.8,26.1,254.71,26.1,254.71L69.89,143.14s36.86,4.12,35.87,15.63S74.18,266.34,57.91,268.57Z"/><path class="cls-9" d="M1.69,32.57V45.45C46.69,80,95.36,78.93,95.36,78.93,53.52,46.62,20.29,36,1.69,32.57Z"/><path class="cls-22" d="M35.42,134.17c-13.51,13.16-24.51,29.16-33,45.74"/><path class="cls-4" d="M1.69,288.3v19.6l8.91-20.46A60.63,60.63,0,0,1,1.69,288.3Z"/><path class="cls-4" d="M75.95,123.49l-6.05,19.65s35.72,2.86,35.87,15.63-26.31,78.18-29.54,84.41-12,24.8-18.31,25.39-15.32-.82-31.81-13.86l-8,15.52S33.2,285,61.35,288.31c0,0,7.25-.72,18.55-20.08,13.33-18.88,33.5-68.46,35.25-76.68s10.93-32.58,7.47-44.3S104.32,126,83.84,123.83Z"/><polygon class="cls-4" points="72.27 119.64 1.69 281.61 1.69 290.66 9.04 291.03 18.1 270.23 26.1 254.71 37.44 226.02 53.79 184.14 69.89 143.14 76.97 120.82 72.27 119.64"/><path class="cls-23" d="M107.59,95.13c21.85-2.55,8.75-48.64-22.27-37.73,8.78-20.14-10.44-43.73-42.83-19.12C56.16,24.88,32.06-8.67,9.14,12.22A15.12,15.12,0,0,0,2.68-.39c0,.13,0,.26,0,.39V79.6c3.66,0,8.32-2.49,14.25-9.13-14.76,18,6.27,39.14,38.66,29.75-36,9.66,18.45,59.2,26.9,29.24C106.87,153.9,139.51,123.42,107.59,95.13Z"/><path class="cls-8" d="M734.49,205.81a45.12,45.12,0,0,0-23.73,22.13l-9-9.6s-3.66,8.88-10.4,9-31.55-26.51-28.68-30.76a24.49,24.49,0,0,1,8.93-8.33l-8.23-8.82s3.18-11.45,24.83-23.16C688.26,156.24,721.29,160.14,734.49,205.81Zm-59.85-13.94s-5.66,2.12-6.85,6.39,19.32,22.18,22.07,23.66,7.73-7.21,7.73-7.21Z"/><path class="cls-9" d="M734.49,205.81s-4.12,11.31-23.73,22.13A44,44,0,0,1,734.49,205.81Z"/><path class="cls-24" d="M710.36,200.76s-6.87-18.52-24.26-26"/><path class="cls-24" d="M717.45,194.38s-6.87-18.52-24.26-26"/><path class="cls-24" d="M703.52,207.14s-6.87-18.52-24.26-26"/><path class="cls-4" d="M696.17,158.43s-24.59,12-28,26.08l-4.77-5.11s2.29-11,24.83-23.16A27.87,27.87,0,0,1,696.17,158.43Z"/><path class="cls-4" d="M701.81,218.34l-4.22-3.61s-4.55,8.54-7.73,7.21-16.55-14.93-17.74-16.4-4.85-5.65-4.33-7.27,1.85-3.71,6.85-6.39l-3-3.65a21.07,21.07,0,0,0-9.13,8.78s-.6,1.87,3,6.76c3.25,5.33,13.36,15.66,15.21,17s6.9,6.21,10.18,6.61,7.23-2.25,10-7.09Z"/><path class="cls-4" d="M732.14,203.29l1.9-.1s-10.45-37-40.95-45.8l-1.36,1.27S721,168.7,732.14,203.29Z"/><polygon class="cls-4" points="703.16 217.84 668.82 181.02 667.48 183.74 671.66 188.22 674.64 191.88 680.54 197.77 689.16 206.32 697.59 214.72 702.36 218.88 703.16 217.84"/><path class="cls-25" d="M729.28,204.49c-5.92-9.9,4.65-11.17,5.55-6.86,5.52-.44,6.67,3.63,4.47,7.47,7.21,1.46,3.45,10.9-2.12,8.6,2.71,7.93-8.19,10.29-10,5.47,2.62,10.67-5.3,12.9-9.34,8.56-.63,8.86-13.46,7.15-11.75,1.46-10.44,4.87-14.49-6.5-5.81-9.91-6.52-5.32,11.62-13.49,10.14-3.52,1.15-9,8.66-12,11.53-6.38C717.62,200.1,729.28,204.49,729.28,204.49Z"/><path class="cls-8" d="M1249.5-5.62l-.4,0h-44.78l-1.83,4.54s-10.6-1.28-15.28-4.42h-10q-.34,0-.65,0a8.6,8.6,0,0,0,.57,3c4.91,11.15,22.27,11,22.27,11l-9.67,21.68c33.83,1.69,53.57,23.89,53.57,23.89,25.25-20.51,38.52-41.51,45.29-59.71Z"/><path class="cls-9" d="M1243.36,54.09s-21.73,1.13-53.57-23.89C1189.79,30.2,1219.81,29.8,1243.36,54.09Z"/><path class="cls-26" d="M1234.75,11.36A86.85,86.85,0,0,0,1247-4"/><path class="cls-26" d="M1250.37,18.66A90.78,90.78,0,0,0,1267-4.22"/><path class="cls-26" d="M1219.3,4.47a77.9,77.9,0,0,0,7.57-8.68"/><path class="cls-4" d="M1187.09-5.48h-9.83a6.39,6.39,0,0,1-.81-.06,9.82,9.82,0,0,0,.31,2.25c1.64,5.74,8.85,10.45,18.84,11.6l3.85.2,3-9.57S1191.69-2,1187.09-5.48Z"/><path class="cls-4" d="M1283.78-5.62a131.23,131.23,0,0,1-37.88,54l1.5,3.1s28.48-22.86,41.54-57.12Z"/><polygon class="cls-4" points="1204.33 -5.6 1202.5 -1.05 1198.94 9.81 1201.24 10.41 1208.38 -5.6 1204.33 -5.6"/><path class="cls-27" d="M1241.87,44.48c12.31-16.84,21.88-.14,15.33,4.4,4.62,8.89-1.35,13.66-9.28,12.71,2.65,13-15.71,13.43-15.82,2.54-11.29,10.11-22.92-6.38-16.18-12.87-15.92,11.88-25.21.28-20.84-9.52-15.2,5.2-21.4-17.37-10.72-18.52-15.47-13.95.6-28.7,12.4-16.66,4.25-14.6,30.64,9.83,13,14.39,15.86-4.45,26,6,18.76,14.69C1241,22,1241.87,44.48,1241.87,44.48Z"/><path class="cls-28" d="M29.32,420.63c0-19.75-12.8-36-29.32-38.41v77.08H12.74l-4.59-2.64h0C20.53,451,29.32,437,29.32,420.63Z"/><path class="cls-29" d="M255.22,419.68s18,31,.54,53.37-8.71,50.83,11.43,59.47"/><path class="cls-30" d="M313.87,389c0-32.69-22.92-59.18-51.19-59.18s-51.19,26.5-51.19,59.18c0,25,13.43,46.39,32.41,55.05h0l-7,4h22.9c1,.06,2,.1,2.94.1s2,0,2.94-.1h22.9l-7-4h0C300.44,435.42,313.87,414,313.87,389Z"/><path class="cls-31" d="M1212,270.51s11.75,20.29.36,34.93-5.7,33.26,7.48,38.92"/><path class="cls-32" d="M1250.42,250.45c0-21.39-15-38.73-33.5-38.73s-33.5,17.34-33.5,38.73c0,16.37,8.79,30.36,21.21,36h0l-4.59,2.63h15c.64,0,1.28.07,1.92.07s1.29,0,1.92-.07h15l-4.59-2.63h0C1241.63,280.81,1250.42,266.82,1250.42,250.45Z"/></g></svg>