<svg xmlns="http://www.w3.org/2000/svg" viewBox="0 0 1367.45 762.39"><defs><style>.cls-1{fill:#a5efeb;}.cls-2{fill:#c8ef5b;}.cls-3{fill:#e9ff8a;}.cls-4{fill:#fff;}.cls-5{fill:#ddcb99;}.cls-6{fill:none;stroke:#9bce7e;stroke-miterlimit:10;stroke-width:4.56px;}.cls-7{fill:#3f6d26;}</style></defs><title>first</title><g id="balloons"><path class="cls-1" d="M-1367.53-4.49V2.6c0,.21,0,.42,0,.63V165.51c.1,1.79.15,3.59.08,5.43v17.32c0,1,0,2-.08,3V371.8q.09,1.71.09,3.42v90.12c0,.39,0,.77,0,1.16,0,.91.07,1.81.07,2.72v96.63c0,1.38-.05,2.74-.14,4.1V761.27h4098V-4.49Z"/><path class="cls-2" d="M1367.16,319.64s274.27-154.64,657.76,0c215.32,89.83,352.77,228,352.77,228l-1010.53-2.11Z"/><path class="cls-2" d="M1367.16,450.64s274.27-154.64,657.76,0c215.32,89.83,352.77,228,352.77,228l-1010.53-2.11Z"/><path class="cls-3" d="M-1.55,329.83s183.83-94.62,440.86,32.89c144.32,74.08,236.45,188,236.45,188L-1.55,549Z"/><path class="cls-2" d="M1367.45,321.84s-274.27-154.64-657.76,0c-215.32,89.83-352.77,228-352.77,228l1010.53-2.11Z"/><path class="cls-4" d="M852.4,20.92C863.48,5.69,905-5.58,949.09,28.37s53.42-3.93,79.88-.56,36.63,30.08,57.74,28.86,31.12,54.78-55.64,47.62c-26.76,26.88-66.3,38.44-122.71-6.86C908.36,97.44,800.35,92.45,852.4,20.92Z"/><path class="cls-4" d="M96.39,144.09c8.94-16.52,48.52-33.16,96.55-5.43s52.28-11,78.87-11.12S312,152.42,332.7,148.42s38,50-48.69,54.43c-22.89,30.1-60.44,46.77-122.19,9.46C161.83,212.31,54.41,221.67,96.39,144.09Z"/><path class="cls-4" d="M626.42,264.32c10.5-14.42,49.87-25.11,91.6,7.06s50.61-3.73,75.67-.53,34.7,28.49,54.7,27.34,29.48,51.89-52.71,45.11c-25.35,25.46-62.81,36.42-116.25-6.5C679.44,336.8,577.12,332.08,626.42,264.32Z"/><path class="cls-4" d="M1240.89,176.88c4.47-8.26,24.26-16.58,48.27-2.72s26.14-5.48,39.43-5.56S1348.68,181,1359,179s19,25-24.34,27.21c-11.44,15-30.22,23.38-61.09,4.73C1273.61,211,1219.91,215.67,1240.89,176.88Z"/><path class="cls-4" d="M227.83,197.22c8.94-16.52,48.52-33.16,96.55-5.43s52.28-11,78.87-11.12,40.18,24.88,60.89,20.88,38,50-48.69,54.43c-22.89,30.1-60.44,46.77-122.19,9.46C293.27,265.44,185.85,274.8,227.83,197.22Z"/><path class="cls-4" d="M1151.76,156.15c6.19-11.44,33.6-23,66.86-3.76s36.2-7.59,54.62-7.7,27.82,17.23,42.17,14.46,26.32,34.64-33.72,37.69c-15.85,20.85-41.86,32.39-84.62,6.55C1197.08,203.39,1122.69,209.88,1151.76,156.15Z"/><path class="cls-5" d="M-1367.41,546.76v19.09c0,1.38-.05,2.74-.14,4.1V762.39h4098V546.76Z"/><path class="cls-6" d="M-1.55,166.75s499.73,185.16,1366,0"/><path class="cls-7" d="M33,195.49a10.54,10.54,0,0,0-7.82.57c-5.5,2.72-7.56,9.8-4.59,15.81a12.79,12.79,0,0,0,5.68,5.79h0c3,2.1,18.86,3.72,18.86,3.72l2.32.78.07.09c-1.05,0-11.44,0-16.62-.51a12.26,12.26,0,0,0-8.87,2.61l0,0c-5.23,3.71-7,10.53-3.91,15.72a11.44,11.44,0,0,0,10.69,5.39,10.54,10.54,0,0,0,1.18,7.75c3.14,5.27,10.36,6.77,16.12,3.33a12.79,12.79,0,0,0,5.33-6.12h0c1.86-3.13,2.23-19.09,2.23-19.09l.57-2.24h0s.67,11.22.51,16.71A12.26,12.26,0,0,0,58,254.52l0,0c4,5,10.93,6.34,15.93,2.94a11.44,11.44,0,0,0,4.72-11,10.54,10.54,0,0,0,7.67-1.65c5.07-3.46,6.12-10.75,2.35-16.29a12.79,12.79,0,0,0-6.43-4.95h0c-3.24-1.67-19.19-1.06-19.19-1.06L60.74,222l-.53-.77a6.13,6.13,0,0,1,1.93-2s3.11-.39,10.94-7.25,11.27-15.89,11.52-17.32-2.85-6-7.39-6.24-3,1.21-8.12,12.54c-5,11-13.86,14.74-14.36,14.94.06-.72.93-11.35,1.81-16.58a12.26,12.26,0,0,0-1.9-9l0,0c-3.28-5.5-9.95-7.8-15.36-5.13A11.44,11.44,0,0,0,33,195.49Z"/><path class="cls-7" d="M291.75,180.39a10.54,10.54,0,0,0,2.87-7.3c-.07-6.14-5.56-11.05-12.27-11a12.79,12.79,0,0,0-7.68,2.62h0c-3.18,1.77-11.51,15.4-11.51,15.4l-1.71,1.75-.11,0c.46-.95,5-10.29,7.65-14.76a12.26,12.26,0,0,0,1.49-9.12l0,0c-1.08-6.32-6.46-10.86-12.48-10.32a11.44,11.44,0,0,0-9.48,7.31,10.54,10.54,0,0,0-7.5-2.29c-6.11.55-10.58,6.41-10,13.09a12.79,12.79,0,0,0,3.21,7.45h0c2,3,16.25,10.27,16.25,10.27l1.78,1.48h0s-10.41-4.25-15.28-6.77a12.26,12.26,0,0,0-9.2-.93l0,0c-6.24,1.46-10.45,7.11-9.54,13.08a11.44,11.44,0,0,0,7.87,9,10.54,10.54,0,0,0-1.83,7.63c.92,6.07,7,10.17,13.67,9.16a12.79,12.79,0,0,0,7.24-3.66h0c2.9-2.2,9.26-16.85,9.26-16.85l1.4-1.9.92-.14a6.13,6.13,0,0,1,.94,2.6s-1,3,1.81,13,9.45,17,10.63,17.88,6.65,0,8.82-4,.19-3.18-7.8-12.75c-7.76-9.3-7.29-18.87-7.26-19.41.62.36,9.83,5.75,14.16,8.8a12.26,12.26,0,0,0,9,2.2l0,0c6.38-.58,11.34-5.59,11.27-11.63A11.44,11.44,0,0,0,291.75,180.39Z"/><path class="cls-7" d="M435.58,293.18a10.54,10.54,0,0,0-1.12,7.76c1.48,6,7.95,9.48,14.46,7.87a12.79,12.79,0,0,0,6.87-4.31h0c2.69-2.45,7.67-17.63,7.67-17.63l1.26-2.09.1,0c-.23,1-2.49,11.16-4.06,16.12a12.26,12.26,0,0,0,.65,9.22l0,0c2.5,5.9,8.78,9.09,14.51,7.18a11.44,11.44,0,0,0,7.55-9.29,10.54,10.54,0,0,0,7.83.51c5.82-1.94,8.83-8.67,6.71-15a12.79,12.79,0,0,0-4.83-6.52h0c-2.66-2.49-18.17-6.27-18.17-6.27l-2.07-1h0s11.11,1.75,16.43,3.08a12.26,12.26,0,0,0,9.16-1.21l0,0c5.74-2.85,8.54-9.32,6.29-14.93a11.44,11.44,0,0,0-9.73-7,10.54,10.54,0,0,0,0-7.84c-2.29-5.69-9.19-8.28-15.41-5.78a12.79,12.79,0,0,0-6.21,5.22h0c-2.32,2.8-5.15,18.52-5.15,18.52l-.92,2.16-.87.35a6.13,6.13,0,0,1-1.51-2.31s.29-3.12-4.74-12.24-13.1-14.41-14.45-15-6.48,1.49-7.68,5.88.55,3.14,10.51,10.62c9.68,7.27,11.43,16.69,11.52,17.22-.69-.21-10.89-3.34-15.8-5.32a12.26,12.26,0,0,0-9.24-.08l0,0c-6.08,2-9.75,8-8.3,13.91A11.44,11.44,0,0,0,435.58,293.18Z"/><path class="cls-7" d="M706.63,224.22a10.54,10.54,0,0,0,6.81-3.9c3.78-4.83,2.57-12.1-2.71-16.24a12.79,12.79,0,0,0-7.63-2.76h0c-3.59-.61-18.61,4.81-18.61,4.81l-2.43.3-.1-.06c.95-.45,10.33-4.91,15.2-6.73a12.26,12.26,0,0,0,6.87-6.19h0c3.11-5.6,1.75-12.52-3.28-15.86a11.44,11.44,0,0,0-12-.23,10.54,10.54,0,0,0-4.42-6.48c-5.11-3.39-12.27-1.62-16,4a12.79,12.79,0,0,0-2.16,7.82h0c-.32,3.63,6.25,18.18,6.25,18.18l.46,2.27h0s-5.46-9.83-7.69-14.84a12.26,12.26,0,0,0-6.59-6.48v0c-5.78-2.76-12.6-1-15.63,4.24a11.44,11.44,0,0,0,.5,12,10.54,10.54,0,0,0-6.2,4.8c-3.08,5.31-.87,12.34,4.93,15.7a12.79,12.79,0,0,0,7.94,1.68h0c3.64.1,17.76-7.35,17.76-7.35l2.27-.61.81.47a6.13,6.13,0,0,1-.89,2.62s-2.64,1.69-6.73,11.28-3.28,19.2-2.89,20.6,5.17,4.19,9.36,2.43,2.14-2.37,1.89-14.82c-.24-12.1,6.12-19.28,6.48-19.68.26.67,4.08,10.63,5.54,15.73a12.26,12.26,0,0,0,5.63,7.33l0,0c5.34,3.54,12.34,2.73,16.07-2A11.44,11.44,0,0,0,706.63,224.22Z"/><path class="cls-7" d="M1107.17,171.14a10.54,10.54,0,0,0,2.87-7.3c-.07-6.14-5.56-11.05-12.27-11a12.79,12.79,0,0,0-7.68,2.62h0c-3.18,1.77-11.51,15.4-11.51,15.4l-1.71,1.75-.11,0c.46-.95,5-10.29,7.65-14.76a12.26,12.26,0,0,0,1.49-9.12l0,0c-1.08-6.32-6.46-10.86-12.48-10.32a11.44,11.44,0,0,0-9.48,7.31,10.54,10.54,0,0,0-7.5-2.29c-6.11.55-10.58,6.41-10,13.09a12.79,12.79,0,0,0,3.21,7.45h0c2,3,16.25,10.27,16.25,10.27l1.78,1.48h0s-10.41-4.25-15.28-6.77a12.26,12.26,0,0,0-9.2-.93l0,0c-6.24,1.46-10.45,7.11-9.54,13.08a11.44,11.44,0,0,0,7.87,9,10.54,10.54,0,0,0-1.83,7.63c.92,6.07,7,10.17,13.67,9.16a12.79,12.79,0,0,0,7.24-3.66h0c2.9-2.2,9.26-16.85,9.26-16.85l1.4-1.9.92-.14a6.13,6.13,0,0,1,.94,2.6s-1,3,1.81,13,9.45,17,10.63,17.88,6.65,0,8.82-4,.19-3.18-7.8-12.75c-7.76-9.3-7.29-18.87-7.26-19.41.62.36,9.83,5.75,14.16,8.8a12.26,12.26,0,0,0,9,2.2l0,0c6.38-.58,11.34-5.59,11.27-11.63A11.44,11.44,0,0,0,1107.17,171.14Z"/><path class="cls-7" d="M851.75,242.66a10.54,10.54,0,0,0-7.82.57c-5.5,2.72-7.56,9.8-4.59,15.81a12.79,12.79,0,0,0,5.68,5.79h0c3,2.1,18.86,3.72,18.86,3.72l2.32.78.07.09c-1.05,0-11.44,0-16.62-.51a12.26,12.26,0,0,0-8.87,2.61l0,0c-5.23,3.71-7,10.53-3.91,15.72a11.44,11.44,0,0,0,10.69,5.39,10.54,10.54,0,0,0,1.18,7.75c3.14,5.27,10.36,6.77,16.12,3.33a12.79,12.79,0,0,0,5.33-6.12h0c1.86-3.13,2.23-19.09,2.23-19.09l.57-2.24h0s.67,11.22.51,16.71a12.26,12.26,0,0,0,3.14,8.69l0,0c4,5,10.93,6.34,15.93,2.94a11.44,11.44,0,0,0,4.72-11,10.54,10.54,0,0,0,7.67-1.65c5.07-3.46,6.12-10.75,2.35-16.29a12.79,12.79,0,0,0-6.43-4.95h0c-3.24-1.67-19.19-1.06-19.19-1.06l-2.31-.44-.53-.77a6.13,6.13,0,0,1,1.93-2s3.11-.39,10.94-7.25,11.27-15.89,11.52-17.32-2.85-6-7.39-6.24-3,1.21-8.12,12.54c-5,11-13.86,14.74-14.36,14.94.06-.72.93-11.35,1.81-16.58a12.26,12.26,0,0,0-1.9-9l0,0c-3.28-5.5-9.95-7.8-15.36-5.13A11.44,11.44,0,0,0,851.75,242.66Z"/><path class="cls-7" d="M1268.59,233.32a10.54,10.54,0,0,0-.52,7.82c1.93,5.83,8.65,8.84,15,6.74a12.79,12.79,0,0,0,6.52-4.82h0c2.49-2.65,6.3-18.16,6.3-18.16l1.1-2.18.1-.05c-.15,1-1.63,11.32-2.81,16.39a12.26,12.26,0,0,0,1.35,9.14l0,0c2.94,5.69,9.45,8.39,15,6.05a11.44,11.44,0,0,0,6.82-9.84,10.54,10.54,0,0,0,7.84-.09c5.66-2.38,8.14-9.32,5.54-15.5a12.79,12.79,0,0,0-5.32-6.13h0c-2.84-2.28-18.6-4.86-18.6-4.86l-2.14-.87h0s11.21.9,16.62,1.81a12.26,12.26,0,0,0,9-1.9l0,0c5.5-3.28,7.8-9.95,5.13-15.36a11.44,11.44,0,0,0-10.24-6.21,10.54,10.54,0,0,0-.57-7.82c-2.72-5.5-9.8-7.56-15.81-4.59a12.79,12.79,0,0,0-5.79,5.68h0c-2.1,3-3.72,18.86-3.72,18.86l-.75,2.23-.84.41a6.13,6.13,0,0,1-1.69-2.19s.05-3.13-5.66-11.85-14.17-13.37-15.55-13.81-6.35,2-7.21,6.45.79,3.09,11.3,9.79c10.21,6.51,12.67,15.77,12.8,16.29-.7-.16-11.11-2.49-16.16-4.1a12.26,12.26,0,0,0-9.22.63l0,0c-5.9,2.49-9.11,8.77-7.21,14.5A11.44,11.44,0,0,0,1268.59,233.32Z"/></g></svg>