<svg xmlns="http://www.w3.org/2000/svg" viewBox="0 0 73.13 70.96"><defs><style>.cls-1{fill:#3f6d26;}</style></defs><title>shamrock</title><g id="Layer_2" data-name="Layer 2"><g id="Shamrock"><path class="cls-1" d="M67.58,30.15a9.2,9.2,0,0,0,2.93-6.33c.2-5.42-4.6-10-10.73-10.16a12,12,0,0,0-7.12,2h0c-3,1.44-11.16,13.14-11.16,13.14L39.88,30.3h-.1c.46-.82,5-8.89,7.61-12.73a10.54,10.54,0,0,0,1.74-8h0A10.75,10.75,0,0,0,38.14,0a10.49,10.49,0,0,0-9,6.08,9.8,9.8,0,0,0-6.75-2.31C16.82,4,12.5,9,12.76,14.95a11,11,0,0,0,2.61,6.7h0c1.71,2.75,14.39,9.69,14.39,9.69l1.56,1.38h0S22,28.56,17.65,26.16A11.54,11.54,0,0,0,9.3,25l0,0C3.56,26.08-.52,30.9.05,36.2a10.14,10.14,0,0,0,6.8,8.26,9.11,9.11,0,0,0-2,6.66c.58,5.39,6,9.25,12.09,8.61a11.91,11.91,0,0,0,6.76-2.95h0c2.74-1.83,9.17-14.51,9.17-14.51l1.35-1.62.85-.09a5.27,5.27,0,0,1,.75,2.33s-1,2.58,1.09,11.55,7.9,15.39,8.94,16.18,6.07.29,8.22-3.15.31-2.8-6.57-11.55c-6.68-8.5-5.85-16.93-5.8-17.4.55.34,8.73,5.45,12.55,8.31a11.48,11.48,0,0,0,8.1,2.28v0c5.85-.27,10.58-4.5,10.78-9.83A10,10,0,0,0,67.58,30.15Z"/></g></g></svg>